<?xml version="1.0" encoding="utf-8"?>
<!-- Generator: Adobe Illustrator 23.0.5, SVG Export Plug-In . SVG Version: 6.00 Build 0)  -->
<svg version="1.1" id="Layer_1" xmlns="http://www.w3.org/2000/svg" xmlns:xlink="http://www.w3.org/1999/xlink" x="0px" y="0px"
	 viewBox="0 0 552.2 115.6" style="enable-background:new 0 0 552.2 115.6;" xml:space="preserve">
<style type="text/css">
	.st0{opacity:0.5;fill:#E0DFDE;}
	.st1{fill:#E0DFDE;}
</style>
<path class="st0" d="M552.2,114.1V1.5c-40.3-5.4-100.7,14-127.7,31c-34,21.5-50.6,38-86.5,48.4c-35.8,10.4-67.3,1.5-86.4-5
	c-10.4-3.5-22.8-7.1-31.7-9.6c-31.2-8.7-64.6-6.1-93.9,7.7c-8.1,3.8-15.1,8.1-20.7,12.3c-20.1,15-63.7,24.1-82.5,24.4
	C4,111,0,106.9,0,106.9v7.2H552.2z"/>
<path class="st1" d="M552.2,115.6V3c-40.3-5.4-100.7,14-127.7,31c-34,21.5-50.6,38-86.5,48.4c-35.8,10.4-67.3,1.5-86.4-5
	c-10.4-3.5-22.8-7.1-31.7-9.6c-31.2-8.7-64.6-6.1-93.9,7.7c-8.1,3.8-15.1,8.1-20.7,12.3c-20.1,15-63.7,24.1-82.5,24.4
	C4,112.5,0,108.4,0,108.4v7.2H552.2z"/>
</svg>
