<?xml version="1.0" encoding="utf-8"?>
<!-- Generator: Adobe Illustrator 23.0.5, SVG Export Plug-In . SVG Version: 6.00 Build 0)  -->
<svg version="1.1" id="Layer_1" xmlns="http://www.w3.org/2000/svg" xmlns:xlink="http://www.w3.org/1999/xlink" x="0px" y="0px"
	 viewBox="0 0 283.5 187.9" style="enable-background:new 0 0 283.5 187.9;" xml:space="preserve">
<style type="text/css">
	.st0{fill:#FFFFFF;}
	.st1{fill:#CDB23F;}
</style>
<path class="st0" d="M239.1,3.3H47.1C23.8,3.3,5,22.2,5,45.4v55.7c0,23.2,18.8,42.1,42.1,42.1h64.4h29.9h0v-29.9h0V87.5v-13v-4.1
	c0-7.1-5.7-12.8-12.8-12.8H85.6c-7.1,0-12.8,5.7-12.8,12.8v4.3c0,7.1,5.7,12.8,12.8,12.8h13c7.1,0,12.8,5.7,12.8,12.8v0
	c0,7.1-5.7,12.8-12.8,12.8H56.7c-11.9,0-21.5-9.6-21.5-21.5v-37c0-11.9,9.6-21.5,21.5-21.5h172.8c11.9,0,21.5,9.6,21.5,21.5v37
	c0,11.9-9.6,21.5-21.5,21.5h-42.1c-7.1,0-12.8-5.7-12.8-12.8V70.4c0-7.1-5.7-12.8-12.8-12.8h-4.3c-7.1,0-12.8,5.7-12.8,12.8v72.7
	h0.1h29.8h64.5c23.2,0,42.1-18.8,42.1-42.1V45.4C281.2,22.2,262.3,3.3,239.1,3.3z"/>
<g>
	<path class="st1" d="M33.4,186.9c-2.5,0-4.8-0.4-6.9-1.3c-2.1-0.9-3.9-2.1-5.5-3.6c-1.6-1.6-2.8-3.4-3.6-5.5
		c-0.9-2.1-1.3-4.4-1.3-6.9c0-2.5,0.4-4.8,1.3-6.9c0.9-2.1,2.1-4,3.6-5.5c1.6-1.6,3.4-2.8,5.5-3.6c2.1-0.9,4.4-1.3,6.9-1.3
		c1.8,0,3.5,0.2,5.1,0.7s3.1,1.1,4.4,2c0.2,0.1,0.3,0.2,0.3,0.4c0.1,0.1,0.1,0.3,0.1,0.5c0,0.3-0.1,0.6-0.3,0.7
		c-0.2,0.2-0.4,0.2-0.6,0.2c-0.1,0-0.2,0-0.3-0.1c-0.1,0-0.2-0.1-0.3-0.1c-1.2-0.7-2.5-1.2-3.9-1.6c-1.4-0.4-2.9-0.6-4.5-0.6
		c-3,0-5.6,0.7-7.9,2c-2.3,1.3-4.1,3.2-5.4,5.5c-1.3,2.3-2,5-2,8c0,3,0.7,5.6,2,8c1.3,2.3,3.1,4.2,5.4,5.5c2.3,1.3,4.9,2,7.9,2
		c1.6,0,3.2-0.2,4.7-0.7c1.6-0.5,2.9-1.1,4.1-2l-0.2,0.9v-12.1l0.7,0.6h-9.4c-0.3,0-0.5-0.1-0.7-0.3c-0.2-0.2-0.3-0.4-0.3-0.7
		c0-0.3,0.1-0.5,0.3-0.7s0.4-0.3,0.7-0.3H43c0.3,0,0.5,0.1,0.7,0.3c0.2,0.2,0.3,0.4,0.3,0.7v12.1c0,0.1,0,0.3-0.1,0.4
		c-0.1,0.2-0.2,0.3-0.3,0.4c-1.4,1-3,1.7-4.7,2.3C37.1,186.6,35.2,186.9,33.4,186.9z"/>
	<path class="st1" d="M62.9,155.1l-12.2,30.7c-0.1,0.2-0.2,0.3-0.3,0.5c-0.2,0.1-0.3,0.2-0.5,0.2c-0.3,0-0.6-0.1-0.7-0.2
		c-0.2-0.2-0.3-0.4-0.3-0.6c0-0.1,0-0.3,0-0.5l13-31.9c0.1-0.3,0.2-0.4,0.4-0.5s0.3-0.1,0.6-0.1c0.3,0,0.5,0.1,0.6,0.2
		c0.2,0.1,0.3,0.3,0.3,0.5l13,31.9c0,0.1,0,0.2,0,0.4c0,0.3-0.1,0.5-0.3,0.7c-0.2,0.2-0.4,0.2-0.7,0.2c-0.2,0-0.4-0.1-0.6-0.2
		c-0.2-0.1-0.3-0.3-0.4-0.5l-12.6-31L62.9,155.1z M54,175.9l0.7-1.9h15.6l0.5,1.9H54z"/>
	<path class="st1" d="M84.1,152.6c0.2,0,0.3,0,0.5,0.1c0.2,0.1,0.3,0.2,0.4,0.3l13.8,20.6h-1l13.8-20.6c0.3-0.4,0.6-0.5,0.9-0.4
		c0.3,0,0.5,0.1,0.6,0.3c0.2,0.2,0.2,0.4,0.2,0.7v31.8c0,0.3-0.1,0.5-0.3,0.7c-0.2,0.2-0.4,0.3-0.7,0.3c-0.3,0-0.5-0.1-0.7-0.3
		c-0.2-0.2-0.3-0.4-0.3-0.7v-29.6h0.5l-13,19.6c-0.1,0.1-0.2,0.2-0.3,0.3c-0.1,0.1-0.2,0.1-0.4,0.1c-0.2,0-0.3,0-0.5-0.1
		c-0.1-0.1-0.2-0.2-0.3-0.3l-13.3-20h0.8v30c0,0.3-0.1,0.5-0.3,0.7c-0.2,0.2-0.4,0.3-0.7,0.3c-0.3,0-0.5-0.1-0.7-0.3
		c-0.2-0.2-0.3-0.4-0.3-0.7v-31.8c0-0.2,0.1-0.4,0.2-0.7C83.6,152.7,83.9,152.6,84.1,152.6z"/>
	<path class="st1" d="M124.1,152.6h18.2c0.3,0,0.5,0.1,0.7,0.3c0.2,0.2,0.3,0.4,0.3,0.7c0,0.3-0.1,0.5-0.3,0.7
		c-0.2,0.2-0.4,0.3-0.7,0.3h-17.6l0.5-0.8v14.9l-0.6-0.7h15.5c0.3,0,0.5,0.1,0.7,0.3c0.2,0.2,0.3,0.4,0.3,0.7c0,0.3-0.1,0.5-0.3,0.7
		c-0.2,0.2-0.4,0.3-0.7,0.3h-15.4l0.5-0.5v15.3l-0.2-0.2h17.3c0.3,0,0.5,0.1,0.7,0.3c0.2,0.2,0.3,0.4,0.3,0.7c0,0.3-0.1,0.5-0.3,0.7
		s-0.4,0.3-0.7,0.3h-18.2c-0.3,0-0.5-0.1-0.7-0.3c-0.2-0.2-0.3-0.4-0.3-0.7v-31.8c0-0.3,0.1-0.5,0.3-0.7
		C123.7,152.7,123.9,152.6,124.1,152.6z"/>
	<path class="st1" d="M164,152.6c2.4,0,4.5,0.5,6.3,1.4c1.8,0.9,3.2,2.2,4.4,3.8c1.1,1.6,2,3.4,2.5,5.4c0.5,2,0.8,4.1,0.8,6.3
		c0,3.1-0.5,5.9-1.5,8.5c-1,2.6-2.5,4.6-4.6,6.1c-2.1,1.5-4.7,2.3-8,2.3h-12.5c-0.3,0-0.5-0.1-0.7-0.3c-0.2-0.2-0.3-0.4-0.3-0.7
		v-31.8c0-0.3,0.1-0.5,0.3-0.7c0.2-0.2,0.4-0.3,0.7-0.3H164z M163.5,184.5c3,0,5.3-0.7,7.2-2c1.8-1.3,3.1-3.1,4-5.4
		c0.9-2.3,1.3-4.8,1.3-7.5c0-2-0.2-3.8-0.7-5.6c-0.5-1.8-1.2-3.4-2.2-4.8c-1-1.4-2.3-2.5-3.9-3.3c-1.6-0.8-3.5-1.2-5.7-1.2h-11.3
		l0.3-0.4v30.7l-0.3-0.4H163.5z"/>
	<path class="st1" d="M186.2,152.6h18.2c0.3,0,0.5,0.1,0.7,0.3c0.2,0.2,0.3,0.4,0.3,0.7c0,0.3-0.1,0.5-0.3,0.7
		c-0.2,0.2-0.4,0.3-0.7,0.3h-17.6l0.5-0.8v14.9l-0.6-0.7h15.5c0.3,0,0.5,0.1,0.7,0.3c0.2,0.2,0.3,0.4,0.3,0.7c0,0.3-0.1,0.5-0.3,0.7
		c-0.2,0.2-0.4,0.3-0.7,0.3h-15.4l0.5-0.5v15.3l-0.2-0.2h17.3c0.3,0,0.5,0.1,0.7,0.3c0.2,0.2,0.3,0.4,0.3,0.7c0,0.3-0.1,0.5-0.3,0.7
		s-0.4,0.3-0.7,0.3h-18.2c-0.3,0-0.5-0.1-0.7-0.3c-0.2-0.2-0.3-0.4-0.3-0.7v-31.8c0-0.3,0.1-0.5,0.3-0.7
		C185.7,152.7,185.9,152.6,186.2,152.6z"/>
	<path class="st1" d="M237.5,155.4c0.3,0.2,0.4,0.4,0.4,0.7c0,0.2,0,0.5-0.2,0.7c-0.2,0.2-0.4,0.3-0.6,0.4c-0.2,0-0.5,0-0.7-0.2
		c-1.3-0.9-2.8-1.7-4.4-2.2c-1.6-0.5-3.3-0.8-5.1-0.8c-2.1,0-4,0.4-5.8,1.1c-1.8,0.8-3.4,1.8-4.7,3.2c-1.3,1.4-2.4,3-3.2,4.9
		c-0.8,1.9-1.2,4-1.2,6.3s0.4,4.4,1.2,6.3c0.8,1.9,1.8,3.5,3.2,4.9s2.9,2.5,4.7,3.2c1.8,0.8,3.7,1.1,5.8,1.1c1.8,0,3.5-0.3,5.1-0.8
		c1.6-0.5,3-1.3,4.4-2.2c0.2-0.2,0.5-0.2,0.7-0.2c0.3,0,0.5,0.2,0.6,0.4c0.2,0.2,0.2,0.5,0.2,0.7c0,0.3-0.2,0.5-0.4,0.6
		c-0.8,0.5-1.7,1.1-2.9,1.6c-1.2,0.5-2.4,0.9-3.7,1.2c-1.3,0.3-2.6,0.5-4,0.5c-2.3,0-4.5-0.4-6.5-1.3c-2-0.9-3.8-2.1-5.4-3.6
		c-1.5-1.6-2.8-3.4-3.6-5.5c-0.9-2.1-1.3-4.4-1.3-6.9c0-2.5,0.4-4.8,1.3-6.9c0.9-2.1,2.1-3.9,3.6-5.5s3.3-2.8,5.4-3.6
		c2-0.9,4.2-1.3,6.5-1.3c2,0,3.8,0.3,5.7,0.9C234.4,153.6,236.1,154.4,237.5,155.4z"/>
	<path class="st1" d="M245.5,186.4c-0.3,0-0.6-0.1-0.7-0.3c-0.2-0.2-0.3-0.4-0.3-0.7v-31.7c0-0.3,0.1-0.5,0.3-0.7
		c0.2-0.2,0.4-0.3,0.7-0.3c0.3,0,0.5,0.1,0.7,0.3c0.2,0.2,0.3,0.4,0.3,0.7v31.7c0,0.3-0.1,0.5-0.3,0.7
		C245.9,186.3,245.7,186.4,245.5,186.4z M268,152.8c0.3,0,0.5,0.1,0.7,0.3c0.2,0.2,0.3,0.4,0.3,0.7c0,0.3-0.1,0.5-0.3,0.7
		l-22.5,20.9l-0.4-2.1l21.5-20.2C267.5,152.9,267.7,152.8,268,152.8z M268.8,186.6c-0.3,0-0.5-0.1-0.7-0.3l-14.6-18l1.5-1.5
		l14.6,18.2c0.2,0.2,0.2,0.5,0.2,0.7c0,0.4-0.1,0.7-0.4,0.8C269.3,186.6,269,186.6,268.8,186.6z"/>
</g>
</svg>
