<?xml version="1.0" encoding="utf-8"?>
<!-- Generator: Adobe Illustrator 23.0.5, SVG Export Plug-In . SVG Version: 6.00 Build 0)  -->
<svg version="1.1" id="Capa_1" xmlns="http://www.w3.org/2000/svg" xmlns:xlink="http://www.w3.org/1999/xlink" x="0px" y="0px"
	 viewBox="0 0 120 120" style="enable-background:new 0 0 120 120;" xml:space="preserve">
<style type="text/css">
	.st0{fill:#FFFFFF;}
</style>
<g>
	<path class="st0" d="M33.7,4c2.4,0,4.5,0,6.8,0c0,4.1,0.4,8-0.1,11.9c-0.6,5-4.5,8.5-9.5,9.4c-0.7,0.1-1.4,0.2-2.1,0.3
		c-3,0.4-4.7,2.4-4.6,5.2c0.1,2.8,2,4.7,4.9,4.9c2.5,0.1,5,0,7.4,0c7.1,0.1,11.9,4.9,12,12.1c0,2.1,0,4.2,0,6.4c-2.3,0-4.4,0-7,0
		c0-2.1,0-4.2,0-6.2c-0.1-3.5-1.7-5.2-5.2-5.3c-3.3-0.1-6.6,0.1-9.8-0.5c-6-1-9.8-6.3-9.4-12.6c0.4-5.9,4.8-10.4,10.7-10.9
		c4.4-0.4,5.7-1.8,5.7-6.3C33.7,9.7,33.7,7,33.7,4z"/>
	<path class="st0" d="M48.1,4c2.4,0,4.5,0,6.9,0c0,4.3,0,8.4,0,12.5c0,3.4,1.1,4.5,4.4,4.5c2.2,0,4.4,0,6.7,0c4.4,0,6.7,1.2,9.5,4.5
		c-1.5,1.6-3.1,3.1-4.8,4.8c-1.7-2.7-4.6-2.6-7.6-2.5c-1.8,0.1-3.5,0.1-5.3,0c-5-0.2-9.5-4.2-9.8-9.1C47.9,14,48.1,9.1,48.1,4z"/>
	<path class="st0" d="M85.7,76.6c-5.1-3.8-9.3-8.7-13.8-13.3c-1.3-1.4-2.7-2-4.6-2c-22.2,0.1-44.4,0-66.6,0c0,17.9,0,35.9,0,53.8
		c29.6,0,59.2,0,88.9,0c0-10.2-0.2-20.1,0.1-29.9C89.8,81.5,89,79.1,85.7,76.6z M65.3,73.4c2.1,0,4.3,0,6.6,0c0,2.1,0,4.3,0,6.6
		c-2.1,0-4.2,0-6.6,0C65.3,77.8,65.3,75.7,65.3,73.4z M53.6,73.2c2.3,0,4.4,0,6.6,0c0,2.2,0,4.4,0,6.7c-2.1,0-4.3,0-6.6,0
		C53.6,77.7,53.6,75.6,53.6,73.2z M54.4,85c0,2.2,0,4.4,0,6.7c-2.2,0-4.4,0-6.7,0c0-2.2,0-4.4,0-6.7C49.9,85,52.1,85,54.4,85z
		 M41.8,73.3c2.2,0,4.3,0,6.6,0c0,2.2,0,4.4,0,6.7c-2.1,0-4.2,0-6.6,0C41.8,77.7,41.8,75.5,41.8,73.3z M42.7,85c0,2.3,0,4.4,0,6.7
		c-2.3,0-4.4,0-6.7,0c0-2.3,0-4.4,0-6.7C38.4,85,40.5,85,42.7,85z M30.2,73.3c2.1,0,4.2,0,6.5,0c0,2.1,0,4.3,0,6.6c-2,0-4.2,0-6.5,0
		C30.2,77.9,30.2,75.7,30.2,73.3z M18.5,73.3c2.2,0,4.3,0,6.7,0c0,2.2,0,4.3,0,6.7c-2.3,0-4.4,0-6.7,0
		C18.5,77.8,18.5,75.6,18.5,73.3z M12.6,85c2.2,0,4.3,0,6.7,0c0,2.3,0,4.4,0,6.7c-2.3,0-4.4,0-6.7,0C12.6,89.5,12.6,87.4,12.6,85z
		 M22.6,103.4c-2.2,0-4.4,0-6.8,0c0-2.3,0-4.4,0-6.7c2.3,0,4.4,0,6.8,0C22.6,98.9,22.6,101.1,22.6,103.4z M24.3,85
		c2.1,0,4.2,0,6.7,0c0,2.2,0,4.3,0,6.6c-2.2,0-4.3,0-6.7,0C24.3,89.6,24.3,87.4,24.3,85z M62.9,103.4c-11.8,0-23.5,0-35.3,0
		c0-2.1,0-4.3,0-6.6c11.7,0,23.4,0,35.3,0C62.9,99,62.9,101.1,62.9,103.4z M66,91.7c-2.1,0-4.2,0-6.5,0c0-2.1,0-4.3,0-6.8
		c2.1,0,4.2,0,6.5,0C66,87.2,66,89.4,66,91.7z M74.7,103.3c-2.3,0-4.5,0-6.9,0c0-2.1,0-4.2,0-6.5c2.2,0,4.5,0,6.9,0
		C74.7,99,74.7,101.1,74.7,103.3z M77.8,91.7c-2.2,0-4.3,0-6.6,0c0-2.1,0-4.3,0-6.7c2.1,0,4.3,0,6.6,0
		C77.8,87.3,77.8,89.4,77.8,91.7z"/>
	<path class="st0" d="M114.9,42.8c-5.1-5-10-10.1-15.1-15c-1.5-1.4-3.4-2.6-5.4-3.1c-4.7-1.3-7.9,0.7-10.9,3.6
		c-1.4,1.4-1.4,3.7,0,5.2c2.6,2.5,5.1,5,7.7,7.5c1.4,1.4,1.5,3.6,0.1,5.1l0,0c-1.4,1.5-3.7,1.5-5.2,0.1c-2.5-2.5-5.1-5.1-7.6-7.6
		c-1.4-1.4-3.8-1.4-5.2,0.1c-0.2,0.2-0.4,0.4-0.6,0.6c-4.2,4.4-4.3,10.5-0.2,14.8c5.3,5.5,10.6,10.9,16.2,16.2
		c7.9,7.5,20.4,6.8,27.1-1.7c0.2-0.2,0.3-0.4,0.4-0.6c2.2-3,3.4-6.6,3.6-10.3c0,0,0-0.6,0.1-1.4c0.1-3.8-0.8-7.5-2.9-10.7
		C116.5,44.5,115.8,43.6,114.9,42.8z M102.7,60.9c-2,0-3.5-1.5-3.5-3.5c0-2,1.5-3.5,3.5-3.5c2,0,3.5,1.5,3.4,3.5
		C106.2,59.5,104.8,60.9,102.7,60.9z"/>
</g>
</svg>
