<?xml version="1.0" encoding="utf-8"?>
<!-- Generator: Adobe Illustrator 23.0.5, SVG Export Plug-In . SVG Version: 6.00 Build 0)  -->
<svg version="1.1" id="Capa_1" xmlns="http://www.w3.org/2000/svg" xmlns:xlink="http://www.w3.org/1999/xlink" x="0px" y="0px"
	 viewBox="0 0 120 120" style="enable-background:new 0 0 120 120;" xml:space="preserve">
<style type="text/css">
	.st0{fill:#FFFFFF;}
</style>
<g>
	<g>
		<g>
			<path class="st0" d="M25.2,42.7H0.8v6.9h24.4c1.9,0,3.5,1.6,3.5,3.5c0,1.9-1.6,3.5-3.5,3.5h-14c-5.7,0-10.4,4.7-10.4,10.4v10.4
				h6.9V66.9c0-1.9,1.6-3.5,3.5-3.5h14c5.7,0,10.4-4.7,10.4-10.4S31,42.7,25.2,42.7z"/>
		</g>
	</g>
	<g>
		<g>
			<path class="st0" d="M61.6,42.7c-5.7,0-10.4,4.7-10.4,10.4v13.9c0,1.9-1.6,3.5-3.5,3.5H32.3v6.9H48c5.7,0,10.4-4.7,10.4-10.4
				V53.1c0-1.9,1.6-3.5,3.5-3.5h15.5v-6.9H61.6z"/>
		</g>
	</g>
	<g>
		<g>
			<path class="st0" d="M112.3,63.5V49.6c0-3.8-3.1-6.9-6.9-6.9c-1.3,0-2.6,0.4-3.7,1.1l-22,13.9c-2,1.3-3.2,3.5-3.2,5.9
				c0,3.8,3.1,6.9,6.9,6.9h22v6.9h6.9v-6.9h6.9v-6.9L112.3,63.5z M105.3,63.5l-22,0l22-13.9V63.5z"/>
		</g>
	</g>
</g>
<path class="st0" d="M184.3,388.3c12,11.5,24,22.6,35.6,34.1c21.6,21.3,42.7,43.1,59.8,68.4c5,7.4,8.5,15.8,12.6,23.7
	c1.6,3,0.6,5.5-1.8,8c-24,24.7-53,39.7-87.1,43.9c-48.8,6-90.7-9-125.5-43.6c-3-2.9-3.3-5.3-1.3-8.9c14.3-27.2,32.7-51.5,53.7-73.7
	c15.2-16.1,31.7-31,47.6-46.3C179.7,392,181.9,390.4,184.3,388.3z"/>
<path class="st0" d="M218.4,359.4c16.6-17.1,33.6-32.9,54.9-43.3c2.7-1.3,4.6-1.4,7.1,0.7c54.9,46,65.6,130.6,23.7,188.9
	c-0.5,0.7-1,1.3-1.5,1.9c-0.5-0.3-1-0.4-1-0.5c-1-26.8-11.8-50.3-25.1-72.8c-14.3-24.4-32-46.2-51-67
	C223.4,364.8,221.1,362.3,218.4,359.4z"/>
<path class="st0" d="M148.9,359c-13.1,15.9-26.2,30.9-38.3,46.8c-16.9,22.2-31.4,45.9-39.3,73c-2.7,9.2-3.9,18.8-6,28.9
	c-2.8-4.2-5.8-8.4-8.4-12.9c-33.9-57.7-20.5-134.8,30.6-178c2.5-2.1,4.5-2,7.1-0.7c19.1,9.1,34.6,22.9,49.4,37.6
	c1.5,1.5,3,3.1,4.5,4.7C148.8,358.7,148.9,359.1,148.9,359z"/>
<path class="st0" d="M112.5,300c42.1-24.9,100.1-25.3,143.4,0.1c-3.1,0.4-5.6,0.7-8,1.2c-20.9,3.9-39.1,13.9-56.8,25
	c-5.2,3.3-8.7,3.5-14,0.1c-15.9-10.1-32.5-19-50.9-23.9C122,301.4,117.5,300.9,112.5,300z"/>
</svg>
