<?xml version="1.0" encoding="utf-8"?>
<!-- Generator: Adobe Illustrator 23.0.5, SVG Export Plug-In . SVG Version: 6.00 Build 0)  -->
<svg version="1.1" id="Capa_1" xmlns="http://www.w3.org/2000/svg" xmlns:xlink="http://www.w3.org/1999/xlink" x="0px" y="0px"
	 viewBox="0 0 120 120" style="enable-background:new 0 0 120 120;" xml:space="preserve">
<style type="text/css">
	.st0{fill:#FFFFFF;}
</style>
<g>
	<path class="st0" d="M118.8,31.5c-0.2-14.9-11.5-27.1-26.4-28.7C85.8,2,79,2.8,72.3,2.5c-2-0.1-2.5,0.5-2.5,2.5
		c0.1,18.5,0,36.9,0,55.4c0,18.5,0,37.1,0,55.6c0,1.7,0.3,2.4,2.2,2.3c5.7-0.1,11.5,0,17.2-0.1c16.3-0.1,29.4-12.8,29.6-29.1
		C119.1,69.9,119.1,50.7,118.8,31.5z M92.8,78c-6.5,0-11.6-5.1-11.6-11.7c0-6.6,5.2-11.8,11.8-11.7c6.5,0.1,11.6,5.2,11.5,11.8
		C104.5,72.9,99.3,78,92.8,78z"/>
	<path class="st0" d="M57.6,60.5c0-18.5,0-37.1,0-55.6c0-1.7-0.3-2.4-2.2-2.4c-8.2,0.1-16.5,0-24.7,0C14.1,2.6,1,15.6,1,32.2
		C0.9,51.1,0.9,69.9,1,88.7c0.1,16.5,13.2,29.4,29.6,29.5c8.2,0,16.3-0.1,24.5,0.1c2,0,2.5-0.4,2.5-2.5
		C57.5,97.4,57.6,78.9,57.6,60.5z M45.7,108.8c-4.2-0.1-8.5,0-12.7,0c-14,0-21.9-7.5-22.5-21.5c-0.2-5.4-0.1-10.9-0.1-16.3
		c0-11.6,0-23.3,0-34.9c0-2.4,0.2-4.7,0.6-7c2-10.7,9.4-16.8,20.4-16.9C36.3,12,41.1,12.2,46,12c1.8,0,2.1,0.6,2.1,2.2
		c-0.1,15.4,0,30.7,0,46.1c0,15.4,0,30.7,0,46.1C48.1,108.3,47.6,108.9,45.7,108.8z"/>
	<path class="st0" d="M41.1,37.5c0,6.1-5,10.9-11,10.8c-5.9-0.1-10.8-5.1-10.8-10.9c0.1-6,4.9-10.8,10.8-10.9
		C36.2,26.5,41.1,31.4,41.1,37.5z"/>
</g>
</svg>
