<?xml version="1.0" encoding="utf-8"?>
<!-- Generator: Adobe Illustrator 23.0.5, SVG Export Plug-In . SVG Version: 6.00 Build 0)  -->
<svg version="1.1" id="Capa_1" xmlns="http://www.w3.org/2000/svg" xmlns:xlink="http://www.w3.org/1999/xlink" x="0px" y="0px"
	 viewBox="0 0 120 120" style="enable-background:new 0 0 120 120;" xml:space="preserve">
<style type="text/css">
	.st0{fill:#FFFFFF;}
</style>
<g>
	<path class="st0" d="M60.1,46.1c4.6,4.4,9.2,8.7,13.7,13.1c8.3,8.2,16.5,16.6,23,26.3c1.9,2.8,3.3,6.1,4.9,9.1
		c0.6,1.2,0.2,2.1-0.7,3.1c-9.2,9.5-20.4,15.3-33.5,16.9c-18.8,2.3-34.9-3.5-48.4-16.8c-1.1-1.1-1.3-2-0.5-3.4
		C24.1,84,31.2,74.6,39.3,66.1c5.9-6.2,12.2-11.9,18.3-17.8C58.4,47.5,59.2,46.9,60.1,46.1z"/>
	<path class="st0" d="M73.3,34.9c6.4-6.6,12.9-12.7,21.2-16.7c1-0.5,1.8-0.5,2.7,0.3c21.2,17.7,25.3,50.3,9.1,72.8
		c-0.2,0.3-0.4,0.5-0.6,0.7c-0.2-0.1-0.4-0.1-0.4-0.2c-0.4-10.3-4.6-19.4-9.7-28.1C90.2,54.4,83.4,46,76,38
		C75.2,37,74.3,36.1,73.3,34.9z"/>
	<path class="st0" d="M46.5,34.8c-5,6.1-10.1,11.9-14.7,18c-6.5,8.6-12.1,17.7-15.1,28.1c-1,3.5-1.5,7.2-2.3,11.1
		c-1.1-1.6-2.2-3.2-3.2-5C-2,64.9,3.2,35.2,22.9,18.5c1-0.8,1.7-0.8,2.8-0.3c7.3,3.5,13.3,8.8,19,14.5c0.6,0.6,1.2,1.2,1.7,1.8
		C46.5,34.7,46.5,34.8,46.5,34.8z"/>
	<path class="st0" d="M32.5,12.1c16.2-9.6,38.6-9.7,55.2,0c-1.2,0.2-2.1,0.3-3.1,0.5c-8,1.5-15.1,5.4-21.9,9.6c-2,1.3-3.4,1.3-5.4,0
		c-6.1-3.9-12.5-7.3-19.6-9.2C36.1,12.6,34.4,12.4,32.5,12.1z"/>
</g>
</svg>
